<?xml version="1.0" encoding="iso-8859-1"?>
<!-- Uploaded to: SVG Repo, www.svgrepo.com, Generator: SVG Repo Mixer Tools -->
<svg version="1.1" id="Layer_1" xmlns="http://www.w3.org/2000/svg" xmlns:xlink="http://www.w3.org/1999/xlink" 
	 viewBox="0 0 512.003 512.003" xml:space="preserve">
<g>
	<polygon style="fill:#FCD197;" points="207.626,215.87 211.439,471.153 122.306,492.94 89.092,194.082 	"/>
	<polygon style="fill:#FCD197;" points="401.119,215.87 389.704,471.153 300.571,492.94 282.585,194.082 	"/>
</g>
<g>
	<polygon style="fill:#FAB352;" points="497.868,215.87 478.836,471.153 434.27,492.94 389.704,471.153 401.119,215.87 
		449.494,194.082 	"/>
	<polygon style="fill:#FAB352;" points="304.372,215.87 300.571,471.153 256.004,492.94 211.439,471.153 207.626,215.87 
		256,194.082 	"/>
	<polygon style="fill:#FAB352;" points="110.879,215.87 122.306,471.153 77.741,492.94 33.175,471.153 14.132,215.87 
		62.505,194.082 	"/>
</g>
<path style="fill:#C41216;" d="M333.166,85.505c0,4.946-0.828,9.685-2.331,14.129l-17.201,50.874L256,172.295l-57.633-21.787
	l-17.201-50.874c-1.503-4.445-2.331-9.183-2.331-14.129c0-24.358,19.739-44.098,44.098-44.098c13.171,0,24.99,5.774,33.073,14.935
	c8.072-9.162,19.892-14.935,33.062-14.935C313.425,41.407,333.166,61.146,333.166,85.505z"/>
<g>
	<path style="fill:#F92629;" d="M487.496,85.505c0,4.946-0.828,9.685-2.331,14.129l-17.201,50.874l-57.633,21.787l-57.633-21.787
		l-17.212-50.874c-1.492-4.445-2.32-9.183-2.32-14.129c0-24.358,19.739-44.098,44.087-44.098c13.17,0,25.001,5.774,33.073,14.935
		c8.083-9.162,19.903-14.935,33.073-14.935C467.745,41.407,487.496,61.146,487.496,85.505z"/>
	<path style="fill:#F92629;" d="M178.833,85.505c0,4.946-0.828,9.685-2.32,14.129l-17.212,50.874l-57.628,21.787l-57.628-21.787
		L26.833,99.634c-1.503-4.445-2.32-9.183-2.32-14.129c0-24.358,19.739-44.098,44.087-44.098c13.171,0,24.99,5.774,33.073,14.935
		c8.083-9.162,19.903-14.935,33.073-14.935C159.095,41.407,178.833,61.146,178.833,85.505z"/>
</g>
<g>
	<rect x="14.132" y="150.509" style="fill:#F58E42;" width="483.735" height="65.362"/>
	<rect x="33.174" y="471.154" style="fill:#F58E42;" width="445.662" height="32.681"/>
</g>
<g>
	<path style="fill:#440852;" d="M497.87,142.337h-18.523l13.559-40.091c1.828-5.409,2.755-11.043,2.755-16.744
		c0-28.818-23.444-52.264-52.264-52.264c-8.005,0-15.805,1.85-22.851,5.277c2.136-9.163,5.919-17.88,11.249-25.772
		c2.524-3.74,1.54-8.818-2.199-11.344c-3.741-2.525-8.82-1.54-11.344,2.199c-7.52,11.136-12.493,23.622-14.729,36.736
		c-7.899-4.593-16.945-7.096-26.267-7.096c-18.518,0-34.806,9.691-44.092,24.258c-9.286-14.568-25.574-24.258-44.093-24.258
		c-8.005,0-15.805,1.85-22.852,5.278c2.137-9.163,5.92-17.88,11.25-25.772c2.524-3.74,1.54-8.818-2.199-11.344
		c-3.741-2.525-8.82-1.54-11.344,2.199c-7.52,11.136-12.493,23.622-14.73,36.736c-7.898-4.593-16.944-7.096-26.267-7.096
		c-18.519,0-34.808,9.691-44.093,24.258C169.55,42.93,153.262,33.24,134.742,33.24c-8.005,0-15.805,1.85-22.852,5.278
		c2.136-9.163,5.919-17.881,11.249-25.772c2.524-3.74,1.54-8.818-2.199-11.344c-3.742-2.525-8.82-1.54-11.344,2.199
		C102.08,14.735,97.108,27.222,94.87,40.336c-7.899-4.593-16.945-7.096-26.267-7.096c-28.818,0-52.264,23.444-52.264,52.264
		c0,5.703,0.928,11.337,2.757,16.745l13.558,40.09H14.132c-4.513,0-8.17,3.657-8.17,8.17v65.362c0,0.204,0.008,0.405,0.023,0.608
		l19.016,254.977v32.377c0,4.513,3.657,8.17,8.17,8.17h445.659c4.513,0,8.17-3.657,8.17-8.17v-32.377l19.017-254.977
		c0.015-0.203,0.023-0.404,0.023-0.608v-65.362C506.04,145.995,502.383,142.337,497.87,142.337z M377.257,49.581
		c10.301,0,20.123,4.434,26.946,12.165c0.046,0.052,0.098,0.097,0.146,0.148c0.115,0.124,0.233,0.245,0.355,0.362
		c0.082,0.077,0.164,0.153,0.249,0.227c0.126,0.11,0.255,0.216,0.388,0.319c0.086,0.066,0.172,0.132,0.26,0.195
		c0.144,0.102,0.292,0.197,0.442,0.291c0.083,0.051,0.164,0.103,0.249,0.151c0.167,0.095,0.338,0.181,0.512,0.265
		c0.075,0.036,0.148,0.074,0.224,0.108c0.192,0.085,0.389,0.159,0.588,0.229c0.063,0.023,0.125,0.049,0.19,0.07
		c0.215,0.07,0.435,0.127,0.657,0.179c0.053,0.012,0.105,0.029,0.158,0.04c0.231,0.049,0.467,0.085,0.705,0.113
		c0.047,0.005,0.093,0.016,0.139,0.022c0.283,0.029,0.57,0.046,0.861,0.046s0.578-0.016,0.861-0.046
		c0.047-0.005,0.093-0.015,0.139-0.022c0.237-0.029,0.474-0.064,0.705-0.113c0.053-0.011,0.106-0.028,0.158-0.04
		c0.222-0.052,0.442-0.109,0.657-0.179c0.064-0.021,0.125-0.047,0.19-0.07c0.199-0.07,0.397-0.144,0.588-0.229
		c0.075-0.034,0.149-0.072,0.223-0.108c0.174-0.083,0.345-0.17,0.512-0.265c0.085-0.048,0.167-0.1,0.249-0.151
		c0.15-0.093,0.298-0.188,0.442-0.291c0.088-0.062,0.174-0.129,0.26-0.195c0.133-0.102,0.261-0.208,0.388-0.319
		c0.085-0.074,0.168-0.149,0.249-0.227c0.123-0.117,0.24-0.237,0.355-0.362c0.047-0.051,0.099-0.096,0.146-0.148
		c6.823-7.731,16.643-12.165,26.945-12.165c19.808,0,35.923,16.115,35.923,35.923c0,3.918-0.637,7.791-1.894,11.509l-15.33,45.324
		H358.556l-15.327-45.322c-1.258-3.72-1.896-7.594-1.896-11.511C341.336,65.696,357.45,49.581,377.257,49.581z M333.165,118.255
		l8.145,24.083H325.02L333.165,118.255z M222.93,49.581c10.301,0,20.123,4.434,26.944,12.165c0.046,0.052,0.098,0.097,0.146,0.148
		c0.115,0.124,0.233,0.245,0.355,0.362c0.082,0.077,0.165,0.153,0.249,0.227c0.126,0.11,0.255,0.216,0.388,0.319
		c0.086,0.066,0.172,0.132,0.26,0.195c0.144,0.102,0.292,0.197,0.442,0.291c0.083,0.051,0.164,0.103,0.249,0.151
		c0.167,0.095,0.338,0.181,0.512,0.265c0.075,0.036,0.148,0.074,0.224,0.108c0.192,0.085,0.389,0.159,0.588,0.229
		c0.063,0.023,0.125,0.049,0.19,0.07c0.215,0.07,0.435,0.127,0.657,0.179c0.053,0.012,0.105,0.029,0.158,0.04
		c0.231,0.049,0.467,0.085,0.705,0.113c0.047,0.005,0.093,0.016,0.139,0.022c0.283,0.029,0.57,0.046,0.861,0.046
		c0.291,0,0.578-0.016,0.861-0.046c0.047-0.005,0.093-0.015,0.139-0.022c0.237-0.029,0.474-0.064,0.705-0.113
		c0.053-0.011,0.106-0.028,0.158-0.04c0.222-0.052,0.442-0.109,0.657-0.179c0.064-0.021,0.125-0.047,0.19-0.07
		c0.199-0.07,0.397-0.144,0.588-0.229c0.075-0.034,0.149-0.072,0.223-0.108c0.174-0.083,0.345-0.17,0.512-0.265
		c0.085-0.048,0.167-0.1,0.249-0.151c0.15-0.093,0.298-0.188,0.442-0.291c0.088-0.062,0.174-0.129,0.26-0.195
		c0.133-0.102,0.261-0.208,0.388-0.319c0.085-0.074,0.168-0.149,0.249-0.227c0.123-0.117,0.24-0.237,0.355-0.362
		c0.047-0.051,0.099-0.096,0.146-0.148c6.824-7.731,16.645-12.165,26.946-12.165c19.808,0,35.923,16.115,35.923,35.923
		c0,3.916-0.638,7.789-1.896,11.51l-15.329,45.323H204.229L188.9,97.015c-1.258-3.72-1.896-7.594-1.896-11.511
		C187.008,65.696,203.123,49.581,222.93,49.581z M178.837,118.255l8.145,24.083h-16.29L178.837,118.255z M34.576,97.013
		c-1.257-3.718-1.896-7.591-1.896-11.509c0-19.808,16.115-35.923,35.923-35.923c10.301,0,20.123,4.434,26.945,12.165
		c0.051,0.058,0.108,0.107,0.16,0.163c0.108,0.115,0.218,0.229,0.332,0.338c0.088,0.084,0.179,0.166,0.269,0.245
		c0.119,0.103,0.241,0.204,0.366,0.301c0.093,0.072,0.184,0.142,0.28,0.209c0.136,0.097,0.278,0.187,0.421,0.277
		c0.089,0.056,0.179,0.112,0.269,0.163c0.159,0.09,0.324,0.173,0.49,0.253c0.082,0.039,0.161,0.082,0.244,0.118
		c0.184,0.082,0.375,0.153,0.565,0.22c0.071,0.025,0.139,0.054,0.21,0.077c0.208,0.068,0.42,0.122,0.635,0.173
		c0.06,0.014,0.119,0.033,0.179,0.046c0.224,0.048,0.453,0.082,0.684,0.11c0.053,0.007,0.106,0.019,0.16,0.024
		c0.277,0.029,0.558,0.045,0.842,0.045c0.309,0.001,0.597-0.015,0.88-0.046c0.04-0.004,0.08-0.013,0.12-0.019
		c0.245-0.029,0.488-0.066,0.727-0.118c0.047-0.01,0.092-0.025,0.137-0.035c0.23-0.053,0.458-0.113,0.679-0.185
		c0.057-0.019,0.112-0.041,0.169-0.062c0.207-0.072,0.412-0.149,0.611-0.237c0.069-0.031,0.135-0.065,0.203-0.098
		c0.182-0.086,0.361-0.176,0.535-0.276c0.078-0.045,0.154-0.093,0.23-0.139c0.158-0.097,0.313-0.197,0.463-0.305
		c0.082-0.058,0.161-0.119,0.241-0.18c0.141-0.108,0.277-0.22,0.41-0.337c0.077-0.069,0.155-0.137,0.23-0.209
		c0.131-0.124,0.256-0.253,0.378-0.386c0.042-0.046,0.09-0.087,0.132-0.134c6.824-7.731,16.645-12.165,26.946-12.165
		c19.808,0,35.923,16.115,35.923,35.923c0,3.92-0.638,7.791-1.896,11.51l-15.329,45.323H49.904L34.576,97.013z M44.223,158.678
		c0.025,0,115.056,0,115.056,0c0.053,0,39.063,0,39.063,0c0.053,0,154.536,0,154.536,0c0.025,0,115.056,0,115.056,0
		c0.053,0,21.766,0,21.766,0v49.022H22.303v-49.022H44.223z M22.935,224.04h466.132l-17.821,238.939h-73.003l9.579-214.064
		c0.203-4.508-3.289-8.326-7.797-8.527c-4.506-0.244-8.326,3.288-8.526,7.797l-9.612,214.793H308.86l3.196-214.305
		c0.068-4.513-3.535-8.225-8.047-8.291c-0.042-0.001-0.083-0.001-0.124-0.001c-4.456,0-8.101,3.577-8.167,8.048l-3.201,214.549
		h-73.034l-1.297-86.913c-0.068-4.471-3.71-8.048-8.167-8.048c-0.04,0-0.083,0-0.124,0.001c-4.512,0.068-8.114,3.78-8.047,8.291
		l1.293,86.669h-73.025l-9.612-214.792c-0.202-4.509-4.036-8.017-8.527-7.797c-4.509,0.202-7.999,4.019-7.797,8.527l9.579,214.063
		H40.754L22.935,224.04z M41.342,495.661V479.32h429.319v16.341H41.342z"/>
	<path style="fill:#440852;" d="M209.529,351.682c0.04,0,0.083,0,0.124-0.001c4.512-0.068,8.114-3.78,8.047-8.291l-1.417-94.96
		c-0.068-4.471-3.71-8.048-8.167-8.048c-0.04,0-0.083,0-0.124,0.001c-4.512,0.068-8.114,3.78-8.047,8.291l1.417,94.96
		C201.429,348.104,205.073,351.682,209.529,351.682z"/>
</g>
</svg>