<?xml version="1.0" encoding="iso-8859-1"?>
<!-- Uploaded to: SVG Repo, www.svgrepo.com, Generator: SVG Repo Mixer Tools -->
<svg height="800px" width="800px" version="1.1" id="Layer_1" xmlns="http://www.w3.org/2000/svg" xmlns:xlink="http://www.w3.org/1999/xlink" 
	 viewBox="0 0 485.345 485.345" xml:space="preserve">
<g transform="translate(0 -1004.36)" shape-rendering="auto" image-rendering="auto" color-rendering="auto" color-interpolation="sRGB">
	<path style="fill:#3B322E;" d="M238.573,1004.418c-124.401,2.417-227.059,101.385-238.541,229.375
		c-0.36,3.995,2.295,7.639,6.208,8.522c0,0,15.019,3.354,36.896,7.813l42.354,211.813c0.627,3.126,3.049,5.581,6.166,6.25
		c0,0,98.476,21.501,151.021,21.501s151.001-21.501,151.001-21.501c3.117-0.669,5.54-3.124,6.166-6.25l43.958-219.813
		c21.161-5.177,35.604-9,35.604-9c3.865-1.033,6.374-4.76,5.874-8.729C469.181,1096.941,362.975,1002.001,238.573,1004.418
		L238.573,1004.418z"/>
	<path style="fill:#EFDA7F;" d="M238.886,1020.398c113.758-2.211,210.881,82.913,229.001,199.02
		c-12.178,3.19-151.44,39.478-224.875,40.896c-73.285,1.413-213.418-29.393-225.772-32.126
		c13.915-116.727,107.892-205.579,221.646-207.791V1020.398z"/>
	<path style="fill:#95CE8F;" d="M426.657,1246.273l-41.437,207.249c-8.396,1.762-96.719,20.168-142.542,20.168
		c-45.826,0-134.175-18.427-142.562-20.188l-39.98-199.938c52.705,10.275,132.245,23.732,183.187,22.75
		C294.61,1275.323,374.28,1258.612,426.657,1246.273L426.657,1246.273z"/>
	<g>
		<path style="fill:#3B322E;" d="M242.548,1303.064c-4.41,0.069-7.933,3.694-7.875,8.104v127.708
			c-0.062,4.418,3.469,8.051,7.887,8.113s8.051-3.469,8.113-7.887c0.001-0.076,0.001-0.151,0-0.227v-127.708
			c0.058-4.418-3.477-8.047-7.896-8.104C242.7,1303.063,242.624,1303.063,242.548,1303.064z"/>
		<path style="fill:#3B322E;" d="M114.839,1292.397c-4.418-0.092-8.074,3.414-8.167,7.832c-0.011,0.531,0.031,1.061,0.125,1.585
			l21.292,127.708c0.544,4.385,4.54,7.499,8.925,6.956c4.385-0.544,7.499-4.54,6.955-8.926c-0.027-0.22-0.064-0.438-0.109-0.655
			l-21.271-127.708c-0.587-3.848-3.858-6.715-7.75-6.793V1292.397z"/>
		<path style="fill:#3B322E;" d="M178.693,1303.064c-4.419-0.009-8.008,3.566-8.016,7.986c-0.001,0.262,0.012,0.523,0.037,0.785
			l10.625,127.708c0.365,4.408,4.234,7.684,8.641,7.318c4.407-0.365,7.683-4.233,7.318-8.641c0-0.004-0.001-0.007-0.001-0.01
			l-10.646-127.708C186.357,1306.32,182.885,1303.075,178.693,1303.064z"/>
		<path style="fill:#3B322E;" d="M306.402,1303.064c-4.103,0.129-7.442,3.343-7.729,7.438l-10.625,127.708
			c-0.511,4.389,2.633,8.362,7.022,8.872c4.389,0.512,8.361-2.633,8.872-7.022c0.02-0.172,0.034-0.344,0.043-0.517l10.646-127.708
			c0.428-4.398-2.791-8.31-7.189-8.738C307.096,1303.064,306.749,1303.052,306.402,1303.064z"/>
		<path style="fill:#3B322E;" d="M370.256,1292.397c-3.796,0.195-6.931,3.034-7.5,6.793l-21.292,127.708
			c-0.731,4.359,2.211,8.487,6.571,9.217c4.36,0.73,8.486-2.211,9.217-6.572c0.001-0.007,0.002-0.014,0.004-0.021l21.271-127.708
			c0.787-4.348-2.099-8.512-6.447-9.298c-0.601-0.109-1.213-0.148-1.824-0.118V1292.397z"/>
		<path style="fill:#3B322E;" d="M253.381,1057.689c-0.717-0.006-1.432,0.083-2.125,0.267l-42.375,10.605
			c-4.313,0.963-7.028,5.24-6.065,9.552s5.24,7.028,9.552,6.065c0.13-0.029,0.259-0.062,0.387-0.097l42.375-10.604
			c4.303-1.003,6.978-5.305,5.975-9.609c-0.839-3.597-4.031-6.153-7.725-6.184V1057.689z"/>
		<path style="fill:#3B322E;" d="M328.027,1079.043c-4.419-0.01-8.009,3.564-8.019,7.982c-0.005,2.173,0.874,4.255,2.436,5.767
			l31.792,31.771c3.065,3.183,8.13,3.278,11.313,0.213c3.183-3.065,3.278-8.13,0.213-11.313c-0.07-0.072-0.141-0.144-0.214-0.214
			l-31.771-31.771C332.269,1079.922,330.194,1079.042,328.027,1079.043L328.027,1079.043z"/>
		<path style="fill:#3B322E;" d="M263.443,1143.043c-0.718,0.051-1.426,0.198-2.104,0.438l-31.729,10.562
			c-4.199,1.383-6.483,5.908-5.1,10.107c1.383,4.199,5.907,6.482,10.107,5.1c0.019-0.006,0.037-0.012,0.056-0.019l31.708-10.563
			c4.222-1.304,6.587-5.784,5.283-10.006C270.565,1145.104,267.157,1142.775,263.443,1143.043z"/>
		<path style="fill:#3B322E;" d="M146.673,1164.396c-4.419,0.01-7.993,3.6-7.983,8.019c0.004,1.607,0.491,3.177,1.4,4.503
			l21.167,31.749c2.388,3.717,7.338,4.796,11.056,2.409c3.718-2.388,4.796-7.339,2.408-11.056c-0.049-0.077-0.1-0.152-0.151-0.227
			l-21.167-31.751C151.923,1165.763,149.389,1164.391,146.673,1164.396z"/>
		<path style="fill:#3B322E;" d="M328.048,1175.063c-3.51-0.027-6.627,2.238-7.688,5.584l-10.563,31.708
			c-1.398,4.194,0.869,8.727,5.063,10.125s8.727-0.869,10.125-5.063l10.563-31.729c1.449-4.174-0.759-8.733-4.934-10.182
			C329.788,1175.219,328.921,1175.07,328.048,1175.063L328.048,1175.063z"/>
		<path style="fill:#3B322E;" d="M114.193,1100.376c-4.411,0.259-7.778,4.044-7.519,8.455c0.195,3.322,2.426,6.177,5.603,7.169
			l31.729,10.563c4.189,1.408,8.726-0.847,10.134-5.036c1.408-4.189-0.847-8.726-5.036-10.133c-0.019-0.007-0.037-0.013-0.056-0.019
			l-31.708-10.562C116.33,1100.459,115.261,1100.311,114.193,1100.376z"/>
		<path style="fill:#3B322E;" d="M412.777,1164.376c-0.718,0.051-1.426,0.198-2.104,0.438l-31.729,10.562
			c-4.199,1.383-6.483,5.908-5.1,10.107s5.907,6.482,10.107,5.1c0.019-0.006,0.037-0.012,0.056-0.019l31.708-10.563
			c4.222-1.304,6.587-5.784,5.283-10.006C419.898,1166.438,416.49,1164.108,412.777,1164.376z"/>
		<path style="fill:#3B322E;" d="M72.048,1164.396c-3.51-0.027-6.627,2.238-7.688,5.584l-10.563,31.708
			c-1.398,4.194,0.869,8.727,5.063,10.125s8.727-0.868,10.125-5.063l10.563-31.729c1.449-4.174-0.759-8.733-4.934-10.182
			C73.788,1164.553,72.921,1164.404,72.048,1164.396L72.048,1164.396z"/>
	</g>
	<path style="fill:#CBBA72;" d="M238.886,1020.398c-2.704,0-5.339,0.395-8.02,0.544c105.476,6.946,193.037,88.848,210.145,198.479
		c-11.789,3.089-142.487,37.099-217.458,40.563c6.825,0.288,13.43,0.448,19.459,0.331c73.434-1.418,212.697-37.706,224.875-40.896
		C449.767,1103.311,352.644,1018.186,238.886,1020.398L238.886,1020.398z"/>
	<g>
		<path style="fill:#83B17E;" d="M426.657,1246.273c-8.462,1.992-18.471,4.174-28.125,6.313l-40.188,200.936
			c-7.65,1.607-81.353,16.88-129.104,19.604c4.649,0.267,9.373,0.565,13.438,0.565c45.823,0,134.146-18.405,142.542-20.168
			l41.437-207.249V1246.273z"/>
		<path style="fill:#83B17E;" d="M60.136,1253.565l1.024,5.124c50.307,9.112,112.479,18.451,155.292,17.625
			c1.861,0,4.005-0.234,5.938-0.31c-50.006-2.122-116.311-13.483-162.251-22.438L60.136,1253.565z"/>
	</g>
</g>
</svg>