<?xml version="1.0" encoding="iso-8859-1"?>
<!-- Uploaded to: SVG Repo, www.svgrepo.com, Generator: SVG Repo Mixer Tools -->
<svg height="800px" width="800px" version="1.1" id="Layer_1" xmlns="http://www.w3.org/2000/svg" xmlns:xlink="http://www.w3.org/1999/xlink" 
	 viewBox="0 0 512 512" xml:space="preserve">
<path style="fill:#736056;" d="M256,100.174c-9.217,0-16.696-7.479-16.696-16.696V27.826c0-9.217,7.479-16.696,16.696-16.696
	s16.696,7.479,16.696,16.696v55.652C272.696,92.695,265.217,100.174,256,100.174z"/>
<path style="fill:#665247;" d="M272.696,83.478V27.826c0-9.217-7.479-16.696-16.696-16.696v89.043
	C265.217,100.174,272.696,92.695,272.696,83.478z"/>
<path style="fill:#88CC2A;" d="M289.391,166.957h-66.783c-9.217,0-16.696-7.479-16.696-16.696V116.87
	c0-27.619,22.468-50.087,50.087-50.087s50.087,22.468,50.087,50.087v33.391C306.087,159.478,298.608,166.957,289.391,166.957z"/>
<path style="fill:#7FB335;" d="M289.391,166.957c9.217,0,16.696-7.479,16.696-16.696V116.87c0-27.619-22.468-50.087-50.087-50.087
	v100.174H289.391z"/>
<path style="fill:#D7EBFF;" d="M372.87,512H139.13c-27.619,0-50.087-22.468-50.087-50.087v-244.87
	c0-46.032,37.446-83.478,83.478-83.478h166.957c46.032,0,83.478,37.446,83.478,83.478v244.87
	C422.957,489.532,400.489,512,372.87,512z"/>
<path style="fill:#C4E2FF;" d="M339.478,133.565H256V512h116.87c27.619,0,50.087-22.468,50.087-50.087v-244.87
	C422.957,171.011,385.51,133.565,339.478,133.565z"/>
<path style="fill:#88CC2A;" d="M356.174,100.174c-9.217,0-16.696-7.479-16.696-16.696V50.087c0-9.206-7.49-16.696-16.696-16.696
	H155.826c-9.217,0-16.696-7.479-16.696-16.696S146.609,0,155.826,0h166.957c27.619,0,50.087,22.468,50.087,50.087v33.391
	C372.87,92.695,365.391,100.174,356.174,100.174z"/>
<path style="fill:#7FB335;" d="M322.783,0H256v33.391h66.783c9.206,0,16.696,7.49,16.696,16.696v33.391
	c0,9.217,7.479,16.696,16.696,16.696c9.217,0,16.696-7.479,16.696-16.696V50.087C372.87,22.468,350.402,0,322.783,0z"/>
<path style="fill:#A3D936;" d="M315.326,280.821c-12.802-12.911-35.952-20.035-59.326-24.042
	c-30.497-5.12-61.663-4.786-71.012-4.452c-8.792,0.223-15.918,7.346-16.14,16.139c-0.444,16.584-1.223,100.73,28.495,130.337
	c16.139,16.139,37.399,24.265,58.657,24.376h0.334c21.369,0,42.741-8.125,58.991-24.376
	C347.937,366.303,347.937,313.322,315.326,280.821z"/>
<g>
	<path style="fill:#96BF43;" d="M315.326,398.803c-16.252,16.25-37.622,24.376-58.991,24.376H256v-166.4
		c23.374,4.007,46.524,11.13,59.326,24.042C347.937,313.322,347.937,366.303,315.326,398.803z"/>
	<path style="fill:#96BF43;" d="M322.696,422.87c-4.272,0-8.544-1.631-11.804-4.892l-66.381-66.381
		c-6.521-6.521-6.521-17.087,0-23.609c6.521-6.521,17.087-6.521,23.609,0l66.381,66.381c6.521,6.521,6.521,17.087,0,23.609
		C331.24,421.239,326.968,422.87,322.696,422.87z"/>
</g>
<path style="fill:#83B324;" d="M256,363.087l54.891,54.891c3.261,3.261,7.533,4.892,11.804,4.892c4.271,0,8.544-1.631,11.804-4.892
	c6.521-6.521,6.521-17.087,0-23.609l-66.381-66.381c-3.342-3.342-7.742-4.914-12.12-4.831v39.929H256z"/>
</svg>